<svg width="26" height="27" viewBox="0 0 26 27" fill="none" xmlns="http://www.w3.org/2000/svg">
<path d="M24.6062 19.0629L14.7263 10.2893L12.7956 12.22L21.5692 22.0999C22.3935 23.0348 23.8318 23.0791 24.7113 22.1995C25.5909 21.3199 25.5411 19.8816 24.6062 19.0629Z" fill="white"/>
<path d="M12.7891 21.2259C12.7891 20.2357 11.987 19.4391 11.0023 19.4391H3.72233C2.73767 19.4391 1.93553 20.2357 1.93553 21.2259V22.0225H12.7891V21.2259Z" fill="white"/>
<path d="M12.9392 22.5757H1.78681C0.802149 22.5757 1.51112e-05 23.3722 1.51112e-05 24.3624V25.7731C1.51112e-05 26.1105 0.276611 26.3871 0.614049 26.3871H14.1119C14.4549 26.3871 14.7259 26.1105 14.7259 25.7731V24.3624C14.7259 23.3722 13.9238 22.5757 12.9392 22.5757Z" fill="white"/>
<path d="M5.26829 8.4007L10.9143 2.75469L16.1895 8.02993L10.5435 13.6759L5.26829 8.4007Z" fill="white"/>
<path d="M16.6911 7.75452C17.2105 8.27398 18.0513 8.27402 18.5708 7.75452C19.0902 7.23506 19.0902 6.39434 18.5708 5.87488L13.0821 0.386256C12.8224 0.126509 12.4807 -0.00334761 12.1423 6.25944e-05C11.804 -0.00334761 11.4622 0.126509 11.2025 0.386256C10.683 0.90575 10.683 1.74644 11.2025 2.26594L16.6911 7.75452Z" fill="white"/>
<path d="M8.38353 16.0627C8.90299 16.5821 9.74371 16.5821 10.2632 16.0627C10.7827 15.5432 10.7826 14.7024 10.2632 14.183L4.77459 8.69438C4.51484 8.43464 4.17308 8.30478 3.83817 8.30478C3.49641 8.30478 3.15465 8.43464 2.8949 8.69438C2.37544 9.21385 2.37544 10.0546 2.8949 10.574L8.38353 16.0627Z" fill="white"/>
</svg>
