<svg width="23" height="21" viewBox="0 0 23 21" fill="none" xmlns="http://www.w3.org/2000/svg">
<path d="M4.7749 0.582275C4.86819 0.594553 4.95832 0.61683 5.04346 0.645752V0.634033L5.18604 0.700439C5.50964 0.850887 5.76465 1.08257 5.99561 1.33521C6.4541 1.83504 6.81922 2.4534 7.04346 2.92017H7.04248C7.26555 3.30697 7.44596 3.6662 7.58643 4.00708H20.3784C21.1803 4.00708 21.9389 4.58864 21.939 5.42114V14.7141C21.939 15.5461 21.1804 16.1282 20.3784 16.1282H15.7222C15.3873 16.1297 15.115 15.859 15.1147 15.5256C15.1147 15.1917 15.3868 14.9206 15.7222 14.9221H20.3784C20.6417 14.9221 20.7271 14.7725 20.7271 14.7141V6.19067L14.1626 11.3479C13.829 11.6095 13.4353 11.7565 13.0356 11.7795C13.0126 11.7808 12.9883 11.7808 12.9653 11.7795C12.566 11.7564 12.17 11.61 11.8364 11.3479L6.95361 7.51099V7.51001C6.87213 7.44877 6.80896 7.36758 6.76807 7.27563L5.97314 7.73364C5.7346 7.87111 5.59894 8.11898 5.55811 8.45923V8.46021C5.51581 8.80212 5.60747 9.18976 5.71143 9.37036H5.71045L8.00146 13.3176V13.3186C8.05162 13.4054 8.15003 13.5176 8.27881 13.6272C8.40683 13.7361 8.55957 13.8379 8.71631 13.9045L8.83447 13.9485C9.10685 14.0393 9.35106 14.0321 9.55908 13.9124L10.4868 13.3782H10.4878C11.1243 13.0124 11.905 13.0064 12.5552 13.3938H12.5562C13.1905 13.7734 13.7306 14.4461 14.2817 15.3928C14.5763 15.8191 14.935 16.4424 15.1411 17.0872L15.2124 17.3342C15.2755 17.5832 15.3106 17.8398 15.2876 18.1038C15.2574 18.4613 15.0709 18.8785 14.689 19.0959L13.9429 19.5237L13.9438 19.5247C13.9226 19.5377 13.9006 19.5481 13.8823 19.5559V19.5549C11.8088 20.4591 9.77087 20.2536 8.06201 19.3665C6.36051 18.484 4.97249 16.9565 4.00439 15.2014L4.00342 15.2024L2.07861 11.886L1.88721 11.5618C0.953751 9.92599 0.398462 8.08561 0.475098 6.29419C0.557097 4.37897 1.39778 2.51832 3.22119 1.18384L3.22705 1.17993C3.24156 1.17077 3.25887 1.15952 3.27783 1.14868L4.0249 0.718994C4.21452 0.609177 4.42391 0.567393 4.62549 0.570557L4.7749 0.582275ZM3.92529 2.16528C2.39837 3.28849 1.7527 4.74436 1.68408 6.34399C1.6153 7.95084 2.16353 9.70468 3.11084 11.2542L3.11475 11.2581L3.12061 11.2688L5.05029 14.594L5.05518 14.5999L5.06104 14.6106C5.93604 16.2022 7.18845 17.5525 8.62256 18.2981L8.89209 18.4299C10.2488 19.0556 11.7499 19.162 13.3823 18.4563L14.0757 18.0579C14.0773 18.0448 14.0793 18.0271 14.0815 18.0022C14.0898 17.8985 14.0639 17.6926 13.9878 17.4553C13.8344 16.9768 13.5136 16.3998 13.2778 16.0598L13.2759 16.0579C13.2674 16.045 13.2591 16.0323 13.2505 16.0168L13.062 15.7053C12.6281 15.0188 12.2349 14.6079 11.9341 14.429H11.9331C11.7573 14.3245 11.6302 14.2808 11.5112 14.2805C11.3921 14.2803 11.2658 14.3236 11.0923 14.4231L10.1646 14.9563C9.52508 15.3236 8.80508 15.2522 8.24365 15.0139C7.68502 14.7771 7.22348 14.3894 6.95166 13.9211L4.66162 9.97388C4.3905 9.50563 4.28255 8.91741 4.35596 8.31665C4.42945 7.71376 4.72706 7.05595 5.3667 6.68774L6.29443 6.15356C6.46845 6.05359 6.56889 5.96656 6.62842 5.8645C6.67291 5.78811 6.69885 5.69541 6.70752 5.56763L6.71045 5.42798C6.7042 5.03175 6.49343 4.37615 5.98291 3.50024L5.97705 3.4895V3.48853C5.97292 3.47891 5.96827 3.46901 5.96338 3.45923L5.9624 3.45728C5.78451 3.08368 5.44176 2.51797 5.10205 2.14771L5.10107 2.14673C4.93328 1.96299 4.7674 1.8377 4.67236 1.79224C4.64894 1.78136 4.63189 1.77382 4.61963 1.7688L3.92529 2.16528ZM7.90869 5.21313C7.91478 5.279 7.91853 5.34461 7.91943 5.40942C7.92602 5.81107 7.8134 6.18608 7.61377 6.5061C7.64464 6.52333 7.67412 6.54265 7.70166 6.5647L12.5854 10.4006H12.5845C12.7103 10.498 12.8603 10.5464 12.9995 10.5618C13.1379 10.5468 13.2873 10.4981 13.4116 10.4006L20.0171 5.21313H7.90869Z" fill="white" stroke="white" stroke-width="0.2"/>
</svg>
