<svg width="240" height="240" viewBox="0 0 240 240" fill="none" xmlns="http://www.w3.org/2000/svg">
<path fill-rule="evenodd" clip-rule="evenodd" d="M31.3169 67.7074H16.5852C15.3169 67.7074 14.2925 66.683 14.2925 65.4147V23.7074C14.2925 18.3903 18.6339 14.0488 23.951 14.0488H65.6096C66.8778 14.0488 67.9022 15.0732 67.9022 16.3415V31.0244C67.9022 32.2927 66.8778 33.3171 65.6096 33.3171H33.6096V65.3171C33.6096 66.683 32.5852 67.7074 31.3169 67.7074ZM18.9266 63.0732H29.0242V31.0732C29.0242 29.8049 30.0486 28.7805 31.3169 28.7805H63.3169V18.683H23.951C21.1705 18.683 18.9266 20.9269 18.9266 23.7074V63.0732ZM223.658 67.7074H208.975C207.707 67.7074 206.683 66.683 206.683 65.4147V33.3659H174.683C173.414 33.3659 172.39 32.3415 172.39 31.0732V16.3903C172.39 15.122 173.414 14.0976 174.683 14.0976H216.341C221.658 14.0976 226 18.4391 226 23.7561V65.4147C225.951 66.683 224.927 67.7074 223.658 67.7074ZM211.268 63.0732H221.366V23.7074C221.366 20.9269 219.122 18.683 216.341 18.683H176.975V28.7805H208.975C210.244 28.7805 211.268 29.8049 211.268 31.0732V63.0732ZM65.6583 225.707H23.951C18.6339 225.707 14.2925 221.366 14.2925 216.049V174.39C14.2925 173.122 15.3169 172.098 16.5852 172.098H31.2681C32.5364 172.098 33.5608 173.122 33.5608 174.39V206.39H65.5608C66.8291 206.39 67.8535 207.415 67.8535 208.683V223.415C67.951 224.683 66.9266 225.707 65.6583 225.707ZM18.9266 176.683V216.049C18.9266 218.829 21.1705 221.073 23.951 221.073H63.3169V210.976H31.3169C30.0486 210.976 29.0242 209.951 29.0242 208.683V176.683H18.9266ZM216.292 225.707H174.634C173.366 225.707 172.341 224.683 172.341 223.415V208.732C172.341 207.463 173.366 206.439 174.634 206.439H206.634V174.439C206.634 173.171 207.658 172.146 208.927 172.146H223.658C224.927 172.146 225.951 173.171 225.951 174.439V216.098C225.951 221.366 221.61 225.707 216.292 225.707ZM176.927 221.073H216.292C219.073 221.073 221.317 218.829 221.317 216.049V176.683H211.219V208.683C211.219 209.951 210.195 210.976 208.927 210.976H176.927V221.073Z" fill="#FF6A13"/>
<path fill-rule="evenodd" clip-rule="evenodd" d="M125.951 133.903H114.293C96.7805 133.903 82.4878 119.659 82.4878 102.098V72.6342C82.4878 71.3659 83.5122 70.3416 84.7805 70.3416C86.0488 70.3416 87.0732 71.3659 87.0732 72.6342V102.098C87.0732 117.073 99.2683 129.268 114.244 129.268H125.902C140.878 129.268 153.073 117.073 153.073 102.098V72.3903C153.073 71.122 154.098 70.0977 155.366 70.0977C156.634 70.0977 157.659 71.122 157.659 72.3903V102.098C157.756 119.659 143.463 133.903 125.951 133.903Z" fill="#5E798C"/>
<path fill-rule="evenodd" clip-rule="evenodd" d="M84.8291 74.9758C83.9998 74.9758 83.1705 74.488 82.7803 73.7563C76.39 61.61 78.4388 52.6344 81.2681 47.2197C85.5608 38.9758 94.5852 33.4149 106.049 31.9027C129.902 21.0734 147.366 27.61 155.756 37.3173C164.585 47.5612 165.219 61.9514 157.366 73.9514C156.975 74.5368 156.39 74.8783 155.707 74.9758C155.024 75.0734 154.341 74.8295 153.853 74.3905C138.78 60.4392 127.512 60.049 114.439 59.5612C112.78 59.5124 111.073 59.4148 109.317 59.3661C108.536 59.3173 107.902 59.8051 107.707 60.5368C105.366 68.927 97.7559 73.8051 85.0242 75.0246C84.9754 74.927 84.8778 74.9758 84.8291 74.9758ZM129.561 30.8783C123.219 30.8783 115.853 32.4392 107.61 36.1953C107.414 36.2929 107.171 36.3417 106.927 36.3905C96.8291 37.6588 88.9266 42.3905 85.3169 49.3173C82.1949 55.3173 82.4876 62.488 86.1461 70.1953C95.951 68.9758 101.561 65.3661 103.219 59.2685C104 56.4392 106.585 54.5856 109.512 54.7319C111.219 54.8295 112.927 54.8783 114.585 54.927C127.414 55.3661 139.512 55.8051 154.829 69.0734C160 59.3661 159.073 48.2929 152.195 40.2929C147.707 35.0246 139.951 30.8783 129.561 30.8783Z" fill="#5E798C"/>
<path fill-rule="evenodd" clip-rule="evenodd" d="M157.707 99.0733H155.414C154.146 99.0733 153.122 98.0489 153.122 96.7806C153.122 95.5123 154.146 94.4879 155.414 94.4879H157.707C161.512 94.4879 164.585 91.4148 164.585 87.6099C164.585 83.805 161.512 80.7318 157.707 80.7318H155.414C154.146 80.7318 153.122 79.7075 153.122 78.4392C153.122 77.1709 154.146 76.1465 155.414 76.1465H157.707C164.048 76.1465 169.219 81.3172 169.219 87.6587C169.219 93.9514 164.048 99.0733 157.707 99.0733Z" fill="#5E798C"/>
<path fill-rule="evenodd" clip-rule="evenodd" d="M84.8293 99.0732H82.5366C76.1951 99.0732 71.0244 93.9025 71.0244 87.561C71.0244 81.2196 76.1951 76.0488 82.5366 76.0488H84.8293C86.0976 76.0488 87.122 77.0732 87.122 78.3415C87.122 79.6098 86.0976 80.6342 84.8293 80.6342H82.5366C78.7317 80.6342 75.6586 83.7074 75.6586 87.5122C75.6586 91.3171 78.7317 94.3903 82.5366 94.3903H84.8293C86.0976 94.3903 87.122 95.4147 87.122 96.683C87.122 98.0488 86.0976 99.0732 84.8293 99.0732Z" fill="#5E798C"/>
<path fill-rule="evenodd" clip-rule="evenodd" d="M105.073 91.4145C103.805 91.4145 102.78 90.3901 102.78 89.1218V82.634C102.78 81.3657 103.805 80.3413 105.073 80.3413C106.341 80.3413 107.366 81.3657 107.366 82.634V89.1218C107.366 90.3413 106.341 91.4145 105.073 91.4145Z" fill="#FF6A13"/>
<path fill-rule="evenodd" clip-rule="evenodd" d="M135.171 91.4145C133.902 91.4145 132.878 90.3901 132.878 89.1218V82.634C132.878 81.3657 133.902 80.3413 135.171 80.3413C136.439 80.3413 137.463 81.3657 137.463 82.634V89.1218C137.512 90.3413 136.488 91.4145 135.171 91.4145Z" fill="#FF6A13"/>
<path fill-rule="evenodd" clip-rule="evenodd" d="M120.146 115.366C116.78 115.366 113.366 114.683 110 113.22C108.829 112.732 108.293 111.366 108.78 110.195C109.268 109.025 110.634 108.488 111.805 108.976C117.415 111.317 122.878 111.317 128.488 108.976C129.659 108.488 131.024 109.025 131.512 110.195C132 111.366 131.463 112.732 130.293 113.22C126.878 114.634 123.512 115.366 120.146 115.366Z" fill="#FF6A13"/>
<path fill-rule="evenodd" clip-rule="evenodd" d="M190.439 195.073H49.8532C48.5849 195.073 47.5605 194.049 47.5605 192.78V174C47.5605 158.097 60.5362 145.122 76.4386 145.122H101.317V129.61C101.317 128.341 102.341 127.317 103.609 127.317C104.878 127.317 105.902 128.341 105.902 129.61V147.414C105.902 148.683 104.878 149.707 103.609 149.707H76.4386C63.0727 149.707 52.1947 160.585 52.1947 173.951V190.439H188.146V173.951C188.146 160.585 177.268 149.707 163.902 149.707H136.731C135.463 149.707 134.439 148.683 134.439 147.414V129.61C134.439 128.341 135.463 127.317 136.731 127.317C138 127.317 139.024 128.341 139.024 129.61V145.122H163.902C179.804 145.122 192.78 158.097 192.78 174V192.78C192.731 194 191.707 195.073 190.439 195.073Z" fill="#5E798C"/>
<path fill-rule="evenodd" clip-rule="evenodd" d="M120.146 157.415C114.048 157.415 107.951 154.634 102 149.073C101.073 148.195 101.024 146.732 101.902 145.805C102.78 144.878 104.244 144.829 105.17 145.707C115.366 155.317 124.878 155.317 135.073 145.707C136 144.829 137.463 144.878 138.341 145.805C139.219 146.732 139.17 148.195 138.244 149.073C132.341 154.634 126.244 157.415 120.146 157.415Z" fill="#5E798C"/>
</svg>
