<svg width="24" height="25" viewBox="0 0 24 25" fill="none" xmlns="http://www.w3.org/2000/svg">
<path d="M8.57189 12.5C9.41967 12.5 10.2484 12.2486 10.9533 11.7776C11.6582 11.3066 12.2076 10.6371 12.5319 9.85385C12.8563 9.07059 12.9412 8.20873 12.7757 7.37726C12.6103 6.54579 12.202 5.78205 11.6025 5.18264C11.0029 4.58323 10.2391 4.17506 9.40764 4.00976C8.57614 3.84446 7.71429 3.92945 6.9311 4.25398C6.1479 4.57851 5.47853 5.12801 5.00764 5.83298C4.53675 6.53794 4.2855 7.36672 4.28564 8.21449C4.28684 9.35084 4.73883 10.4403 5.54242 11.2437C6.34601 12.0472 7.43554 12.499 8.57189 12.5ZM8.57189 5.42824C9.12296 5.42824 9.66166 5.59165 10.1199 5.89781C10.578 6.20397 10.9352 6.63912 11.1461 7.14824C11.3569 7.65736 11.4121 8.21758 11.3046 8.75806C11.1971 9.29854 10.9317 9.795 10.5421 10.1847C10.1524 10.5743 9.65594 10.8397 9.11547 10.9472C8.57499 11.0547 8.01476 10.9995 7.50564 10.7887C6.99652 10.5778 6.56137 10.2206 6.25521 9.76245C5.94906 9.30425 5.78564 8.76556 5.78564 8.21449C5.78624 7.47572 6.07998 6.76737 6.60238 6.24497C7.12477 5.72258 7.83312 5.42884 8.57189 5.42824Z" fill="white"/>
<path d="M17.625 12.875C18.2554 12.875 18.8717 12.6881 19.3959 12.3378C19.9201 11.9876 20.3286 11.4897 20.5699 10.9073C20.8111 10.3249 20.8742 9.68397 20.7513 9.06565C20.6283 8.44734 20.3247 7.87938 19.8789 7.4336C19.4331 6.98782 18.8652 6.68424 18.2469 6.56125C17.6285 6.43826 16.9876 6.50138 16.4052 6.74264C15.8228 6.98389 15.3249 7.39244 14.9747 7.91662C14.6244 8.4408 14.4375 9.05707 14.4375 9.6875C14.4385 10.5326 14.7746 11.3428 15.3722 11.9403C15.9698 12.5379 16.7799 12.874 17.625 12.875ZM17.625 8C17.9588 8 18.285 8.09897 18.5625 8.2844C18.84 8.46982 19.0563 8.73337 19.184 9.04172C19.3118 9.35007 19.3452 9.68937 19.2801 10.0167C19.215 10.3441 19.0542 10.6447 18.8182 10.8807C18.5822 11.1167 18.2816 11.2775 17.9542 11.3426C17.6269 11.4077 17.2876 11.3743 16.9792 11.2465C16.6709 11.1188 16.4073 10.9025 16.2219 10.625C16.0365 10.3475 15.9375 10.0213 15.9375 9.6875C15.9379 9.24007 16.1158 8.81108 16.4322 8.4947C16.7486 8.17832 17.1776 8.0004 17.625 8Z" fill="white"/>
<path d="M17.625 13.7524C16.8682 13.7547 16.1197 13.9093 15.4239 14.2069C14.7281 14.5046 14.0993 14.9392 13.575 15.4849C12.4322 14.5351 11.0424 13.9303 9.56845 13.7414C8.09446 13.5526 6.59716 13.7874 5.25174 14.4184C3.90633 15.0494 2.76843 16.0505 1.97121 17.3046C1.17398 18.5587 0.750391 20.0139 0.75 21.4999C0.75 21.6988 0.829018 21.8896 0.96967 22.0303C1.11032 22.1709 1.30109 22.2499 1.5 22.2499H15.645C15.8439 22.2499 16.0347 22.1709 16.1753 22.0303C16.316 21.8896 16.395 21.6988 16.395 21.4999C16.3937 21.0396 16.3518 20.5803 16.2698 20.1274H22.5C22.6989 20.1274 22.8897 20.0484 23.0303 19.9078C23.171 19.7671 23.25 19.5763 23.25 19.3774C23.2484 17.8861 22.6553 16.4563 21.6007 15.4017C20.5462 14.3472 19.1164 13.754 17.625 13.7524ZM2.29425 20.7499C2.46306 19.3121 3.1205 17.9759 4.15659 16.9649C5.19268 15.9538 6.54457 15.3292 7.98605 15.1956C9.42754 15.062 10.8712 15.4275 12.0755 16.2309C13.2797 17.0343 14.1716 18.2269 14.6017 19.6092C14.7216 19.9804 14.8047 20.3625 14.85 20.7499H2.29425ZM15.8333 18.6274C15.5398 17.8787 15.1322 17.18 14.625 16.5559C15.1463 15.9995 15.8118 15.5986 16.5475 15.398C17.2831 15.1974 18.06 15.2048 18.7916 15.4196C19.5232 15.6343 20.1809 16.0479 20.6915 16.6142C21.202 17.1806 21.5453 17.8775 21.6833 18.6274H15.8333Z" fill="white"/>
</svg>
