<svg width="21" height="19" viewBox="0 0 21 19" fill="none" xmlns="http://www.w3.org/2000/svg">
<path d="M3.61426 1.5C4.64777 1.5 5.60327 2.05131 6.12012 2.94629L9.96973 9.61426C10.3144 10.2112 10.3143 10.9469 9.96973 11.5439C9.22696 12.8305 7.36972 12.8305 6.62695 11.5439L1.66602 2.95117C1.49321 2.65185 1.49312 2.28266 1.66602 1.9834C1.83877 1.6845 2.15772 1.50015 2.50293 1.5H3.61426Z" stroke="currentColor"/>
<path d="M14.6289 5.31567C16.1146 5.31567 17.0437 6.92454 16.3008 8.21118L11.3389 16.804C11.1663 17.1028 10.847 17.2872 10.502 17.2874C10.1568 17.2874 9.83772 17.1027 9.66504 16.804L9.1084 15.8411C8.59152 14.946 8.59162 13.8426 9.1084 12.9475L12.958 6.28052C13.3028 5.68358 13.9395 5.3157 14.6289 5.31567Z" stroke="currentColor"/>
<path d="M18.499 1.50134C18.8445 1.50151 19.1634 1.68643 19.3359 1.98572C19.5082 2.28471 19.5084 2.65268 19.3359 2.95154L18.7803 3.91443C18.2634 4.80945 17.3079 5.3606 16.2744 5.36072H8.5752C7.88579 5.36072 7.24903 4.99289 6.9043 4.39587C6.16154 3.10935 7.08966 1.50134 8.5752 1.50134H18.499Z" stroke="currentColor"/>
</svg>
